# xmcd
#
# Track frame offsets:
#	150
#	9337
#	18539
#	28774
#	39028
#	49693
#	61175
#	72942
#	84737
#	97129
#	110308
#	124375
#	139027
#	154224
#	170016
#	186175
#	202647
#	221669
#
# Disc length: 3219 seconds
#
# Revision: 1
# Processed by: cddbd v1.4PL0 Copyright (c) Steve Scherf et al.
# Submitted via: audiograbber 1.81.03
#
DISCID=f40c9112
DTITLE=Lyle Lovett - I love everybody
DYEAR=1994
DGENRE=Country
TTITLE0=Skinny legs
TTITLE1=Fat babies
TTITLE2=I think you know what I mean
TTITLE3=Hello grandma
TTITLE4=Creeps like me
TTITLE5=Sonja
TTITLE6=They don't like me
TTITLE7=Record lady
TTITLE8=Ain't it somethin'
TTITLE9=Penguins
TTITLE10=The fat girl
TTITLE11=La to the left
TTITLE12=Old friend
TTITLE13=Just the morning
TTITLE14=Moon on my shoulder
TTITLE15=I've got the blues
TTITLE16=Good bye to Carolina
TTITLE17=I love everybody
EXTD=
EXTT0=
EXTT1=
EXTT2=
EXTT3=
EXTT4=
EXTT5=
EXTT6=
EXTT7=
EXTT8=
EXTT9=
EXTT10=
EXTT11=
EXTT12=
EXTT13=
EXTT14=
EXTT15=
EXTT16=
EXTT17=
PLAYORDER=
